<?xml version="1.0" encoding="UTF-8"?>
<svg xmlns="http://www.w3.org/2000/svg" viewBox="0 0 133.06302 30.08127">
  <g id="uuid-d49cd833-54a9-4954-8419-89ce108c7219" data-name="Calque 1"/>
  <g id="uuid-703c9b0f-cc36-4e68-8e5e-373b860866a9" data-name="Calque 2">
    <g id="uuid-e3cb88a4-7ccf-46bb-b792-dc1207327733" data-name="Mode Isolation">
      <g>
        <g>
          <path d="M76.06693,23.39529c-.82104-.33691-1.47729-.83496-1.96851-1.49414-.49146-.65918-.75049-1.4541-.77734-2.38281h3.67456c.05371,.52539,.23535,.92578,.54517,1.20117,.30957,.27637,.71338,.41406,1.21143,.41406,.51147,0,.91528-.11719,1.21143-.35352,.2959-.23438,.44409-.56152,.44409-.97852,0-.34961-.11792-.63965-.35327-.86816-.2356-.22852-.5249-.41699-.86816-.56543s-.8313-.31641-1.46362-.50488c-.91553-.28223-1.6626-.56543-2.24121-.84766-.57886-.2832-1.0769-.7002-1.49414-1.25195s-.62573-1.27246-.62573-2.16016c0-1.31934,.47754-2.35254,1.43335-3.09961,.95557-.74707,2.20068-1.12012,3.73535-1.12012,1.56104,0,2.81958,.37305,3.77539,1.12012,.95557,.74707,1.46704,1.78711,1.53442,3.11914h-3.73511c-.0271-.45703-.19531-.81738-.50464-1.08008-.30981-.2627-.70679-.39355-1.19141-.39355-.41724,0-.75391,.11133-1.00952,.33301-.25586,.22266-.38354,.54199-.38354,.95898,0,.45801,.21509,.81445,.646,1.07031,.43066,.25586,1.10352,.53223,2.01904,.82812,.91528,.30957,1.65894,.60547,2.2312,.8877,.57178,.2832,1.06641,.69336,1.48389,1.23242,.41699,.53809,.62573,1.23145,.62573,2.0791,0,.80762-.20532,1.54102-.61572,2.20117-.41064,.65918-1.00635,1.18457-1.78687,1.57422-.78076,.39062-1.70288,.58594-2.76587,.58594-1.03662,0-1.96533-.16797-2.78638-.50488Z" style="fill: #fff;"/>
          <path d="M105.6453,9.58474l-3.69482,14.17383h-4.1792l-2.26147-9.32812-2.34204,9.32812h-4.1792l-3.59399-14.17383h3.69482l2.03931,10.31738,2.52368-10.31738h3.79565l2.42285,10.31738,2.05933-10.31738h3.71509Z" style="fill: #fff;"/>
          <path d="M116.20438,21.25467h-5.28979l-.84814,2.50391h-3.61401l5.12842-14.17383h3.99756l5.12817,14.17383h-3.6543l-.8479-2.50391Zm-.88843-2.66504l-1.75659-5.18848-1.73633,5.18848h3.49292Z" style="fill: #fff;"/>
          <path d="M132.49759,16.3992c-.37695,.67969-.95581,1.22852-1.73633,1.64551-.78076,.41699-1.74976,.62598-2.90723,.62598h-2.14014v5.08789h-3.45264V9.58474h5.59277c1.13062,0,2.08618,.19531,2.86694,.58594,.78052,.39062,1.36597,.92871,1.75659,1.61523,.39014,.68652,.58545,1.47363,.58545,2.3623,0,.82129-.18872,1.57129-.56543,2.25098Zm-3.43213-.93848c.323-.30957,.48438-.74707,.48438-1.3125s-.16138-1.00293-.48438-1.3125c-.32324-.30957-.8147-.46387-1.47388-.46387h-1.87769v3.55273h1.87769c.65918,0,1.15063-.1543,1.47388-.46387Z" style="fill: #fff;"/>
        </g>
        <g>
          <path d="M7.38732,20.17978c0,2.03993-1.65383,3.69355-3.69377,3.69355s-3.69355-1.65362-3.69355-3.69355,1.65362-3.69371,3.69355-3.69371,3.69377,1.65383,3.69377,3.69371Zm14.50351,3.72039h-6.5904L6.50754,6.50178,9.79662,0l12.09421,23.90017Z" style="fill: #fff;"/>
          <path d="M37.66316,16.83734c0,4.23027-2.14763,7.35412-6.34535,7.35412-1.69214,0-2.83099-.32541-3.57945-.94368v6.83349h-4.16517V7.6284h4.16517v1.07381c.78095-.87859,1.9524-1.36668,3.612-1.36668,3.77467,0,6.3128,2.63577,6.3128,7.28903v2.21277Zm-4.16517-.26032v-1.69209c0-2.60327-.8135-4.03504-2.86354-4.03504-1.98495,0-2.89608,1.30164-2.89608,3.67709v2.05004c0,2.3429,.55318,4.10008,2.89608,4.10008,2.24532,0,2.86354-1.75718,2.86354-4.10008Z" style="fill: #fff;"/>
          <path d="M52.98951,21.42551c-1.13896,1.985-3.02632,2.76595-5.95495,2.76595-4.88098,0-7.22399-3.1564-7.22399-7.35412v-2.21277c0-4.91358,2.47309-7.28903,6.70336-7.28903,4.58822,0,6.70336,2.66831,6.70336,7.61444v1.85482h-9.27403c.03249,2.24526,.7484,3.87231,3.05882,3.87231,1.72458,0,2.27781-.52063,2.89603-1.39922l3.09142,2.14763Zm-9.04626-7.58189h5.10886c-.09758-2.11513-.94368-2.99372-2.50558-2.99372-1.65959,0-2.4406,1.13891-2.60327,2.99372Z" style="fill: #fff;"/>
          <path d="M64.83433,23.8986l-3.15651-4.94612-3.1564,4.94612h-4.58822l5.33663-8.33035-4.91358-7.93985h4.58822l2.73335,4.65326,2.73346-4.65326h4.58822l-4.91369,7.93985,5.36923,8.33035h-4.62072Z" style="fill: #fff;"/>
        </g>
      </g>
    </g>
  </g>
</svg>