<svg width="30" height="30" viewBox="0 0 30 30" fill="none" xmlns="http://www.w3.org/2000/svg">
<path d="M15 1.875C7.75195 1.875 1.875 7.75195 1.875 15C1.875 22.248 7.75195 28.125 15 28.125C22.248 28.125 28.125 22.248 28.125 15C28.125 7.75195 22.248 1.875 15 1.875ZM15 25.8984C8.98242 25.8984 4.10156 21.0176 4.10156 15C4.10156 8.98242 8.98242 4.10156 15 4.10156C21.0176 4.10156 25.8984 8.98242 25.8984 15C25.8984 21.0176 21.0176 25.8984 15 25.8984Z" fill="#8877F1" fill-opacity="0.4"/>
<path d="M15 4.10156C8.98242 4.10156 4.10156 8.98242 4.10156 15C4.10156 21.0176 8.98242 25.8984 15 25.8984C21.0176 25.8984 25.8984 21.0176 25.8984 15C25.8984 8.98242 21.0176 4.10156 15 4.10156ZM20.0332 19.5439C20.0684 19.5879 20.0889 19.6406 20.0889 19.6963C20.0889 19.8281 19.9834 19.9307 19.8545 19.9307L17.9209 19.9219L15.0117 16.4531L12.1025 19.9248L10.166 19.9336C10.0371 19.9336 9.93164 19.8281 9.93164 19.6992C9.93164 19.6436 9.95215 19.5908 9.9873 19.5469L13.7988 15.0088L9.9873 10.4678C9.9519 10.4248 9.93226 10.3711 9.93164 10.3154C9.93164 10.1836 10.0371 10.0811 10.166 10.0811L12.1025 10.0898L15.0117 13.5586L17.9238 10.0869L19.8574 10.0781C19.9863 10.0781 20.0918 10.1836 20.0918 10.3125C20.0918 10.3682 20.0742 10.4238 20.0391 10.4648L16.2275 15.0059L20.0332 19.5439Z" fill="#181E2E"/>
<path d="M20.0918 10.3125C20.0918 10.1836 19.9863 10.0781 19.8574 10.0781L17.9238 10.0869L15.0117 13.5586L12.1025 10.0898L10.166 10.0811C10.0371 10.0811 9.93164 10.1836 9.93164 10.3154C9.93164 10.3711 9.95215 10.4238 9.9873 10.4678L13.7988 15.0088L9.9873 19.5469C9.9519 19.5898 9.93226 19.6436 9.93164 19.6992C9.93164 19.8281 10.0371 19.9336 10.166 19.9336L12.1025 19.9248L15.0117 16.4531L17.9209 19.9219L19.8545 19.9307C19.9834 19.9307 20.0889 19.8281 20.0889 19.6963C20.0889 19.6406 20.0684 19.5879 20.0332 19.5439L16.2275 15.0059L20.0391 10.4648C20.0742 10.4238 20.0918 10.3682 20.0918 10.3125Z" fill="#8877F1"/>
</svg>
