<svg width="13" height="18" viewBox="0 0 13 18" fill="none" xmlns="http://www.w3.org/2000/svg">
<path d="M0.613292 17.2384C0.748097 17.3085 0.899452 17.3406 1.05111 17.3312C1.20277 17.3218 1.34901 17.2713 1.47413 17.185L12.3075 9.68504C12.4182 9.60835 12.5086 9.50597 12.5711 9.38667C12.6336 9.26738 12.6662 9.13471 12.6662 9.00004C12.6662 8.86537 12.6336 8.73271 12.5711 8.61341C12.5086 8.49412 12.4182 8.39174 12.3075 8.31504L1.47413 0.815044C1.3491 0.728538 1.2028 0.677882 1.05105 0.66856C0.899308 0.659239 0.747904 0.691607 0.613234 0.76216C0.478564 0.832714 0.365762 0.938764 0.28704 1.06883C0.208318 1.19889 0.166677 1.34801 0.166626 1.50004V16.5C0.166601 16.6522 0.208212 16.8014 0.286949 16.9315C0.365686 17.0617 0.478544 17.1678 0.613292 17.2384Z" fill="#8877F1"/>
</svg>
