<?xml version="1.0" encoding="utf-8"?>
<!-- Svg Vector Icons : http://www.onlinewebfonts.com/icon -->
<!DOCTYPE svg PUBLIC "-//W3C//DTD SVG 1.1//EN" "http://www.w3.org/Graphics/SVG/1.1/DTD/svg11.dtd">
<svg version="1.1" xmlns="http://www.w3.org/2000/svg" xmlns:xlink="http://www.w3.org/1999/xlink" x="0px" y="0px" viewBox="0 0 1000 1000" enable-background="new 0 0 1000 1000" xml:space="preserve">
<metadata> Svg Vector Icons : http://www.onlinewebfonts.com/icon </metadata>
<g><g transform="translate(0.000000,511.000000) scale(0.100000,-0.100000)"><path d="M2577.4,4288.7c-35.1-15.4-85.5-52.6-111.8-81.1c-26.3-28.5-567.8-936.1-1205.8-2014.8C106.6,241.5,100,230.6,100,110c0-120.6,6.6-131.5,1159.8-2082.8c638-1078.7,1179.5-1986.3,1205.8-2014.8c103-116.2,8.8-111.8,2534.4-111.8c2525.6,0,2431.4-4.4,2534.4,111.8c24.1,28.5,567.8,936.2,1205.8,2014.8C9893.4-21.5,9900-10.6,9900,110c0,120.6-6.6,131.5-1159.8,2082.8c-638,1078.7-1179.5,1986.3-1205.8,2014.8c-103,116.2-6.6,111.8-2538.8,111.8C3083.8,4317.2,2630,4312.8,2577.4,4288.7z M8422.3,2032.7L9560.2,110L8422.3-1814.9L7286.7-3737.6H5000H2713.3L1577.7-1812.7L439.8,110l857.2,1453.6c473.6,798,986.6,1666.2,1142.2,1929.3l282.8,475.8l2282.3-4.4l2282.3-6.6L8422.3,2032.7z"/><path d="M4594.4,2530.4c-1034.8-173.2-1848.2-995.3-2017-2036.7C2480.9-102.7,2630-775.7,2967.6-1269c381.5-554.7,997.5-944.9,1659.6-1043.6c1339.5-203.9,2593.6,714.7,2795.3,2049.9c142.5,934-263.1,1870.1-1043.6,2405.1C5885.7,2482.2,5192.9,2633.4,4594.4,2530.4z M5506.4,2151.1c392.5-100.9,699.4-278.4,984.4-570c282.8-285,464.8-609.5,563.4-1001.9c52.6-208.3,52.6-730,0-938.3c-98.7-390.3-274-706-552.5-988.8c-219.2-223.6-315.7-296-572.2-423.1c-333.3-168.8-675.3-239-1048-217.1c-534.9,30.7-991,239-1372.4,627c-282.8,285-464.8,609.5-563.4,1002c-52.6,208.3-52.6,730,0,938.3c98.7,392.4,280.6,716.9,563.4,1001.9c322.3,328.9,677.5,517.4,1124.7,602.9C4853.1,2225.7,5289.4,2210.3,5506.4,2151.1z"/></g></g>
</svg>